Coordinates
version=1
nRows=11
nColumns=63
inDegrees=yes

Units are S.I. units (second, meters, Newtons, ...)
If the header above contains a line with 'inDegrees', this indicates whether rotational values are in degrees (yes) or radians (no).

endheader
time	pelvis_tilt	pelvis_list	pelvis_rotation	pelvis_tx	pelvis_ty	pelvis_tz	hip_flexion_r	hip_adduction_r	hip_rotation_r	knee_angle_r	knee_angle_r_beta	ankle_angle_r	subtalar_angle_r	mtp_angle_r	hip_flexion_l	hip_adduction_l	hip_rotation_l	knee_angle_l	knee_angle_l_beta	ankle_angle_l	subtalar_angle_l	mtp_angle_l	L5_S1_Flex_Ext	L5_S1_Lat_Bending	L5_S1_axial_rotation	L4_L5_Flex_Ext	L4_L5_Lat_Bending	L4_L5_axial_rotation	L3_L4_Flex_Ext	L3_L4_Lat_Bending	L3_L4_axial_rotation	L2_L3_Flex_Ext	L2_L3_Lat_Bending	L2_L3_axial_rotation	L1_L2_Flex_Ext	L1_L2_Lat_Bending	L1_L2_axial_rotation	L1_T12_Flex_Ext	L1_T12_Lat_Bending	L1_T12_axial_rotation	Abs_r3	Abs_r2	Abs_r1	Abs_t1	Abs_t2	neck_flexion	neck_bending	neck_rotation	arm_flex_r	arm_add_r	arm_rot_r	elbow_flex_r	pro_sup_r	wrist_flex_r	wrist_dev_r	arm_flex_l	arm_add_l	arm_rot_l	elbow_flex_l	pro_sup_l	wrist_flex_l	wrist_dev_l
      3.76666667	     -2.33542568	     -3.28498960	    101.69329263	      0.24786254	      0.80158185	      0.50607727	     -4.62874533	     -2.09425955	    -19.75829058	      5.69609562	      0.09941562	     35.01358430	     15.11848578	      0.00000000	     -1.60681925	      0.23467073	     -2.54052754	      8.58259293	      0.14979450	     25.58590294	    -12.73797964	      0.00000000	      0.04046750	     -0.06221553	     -2.33189225	      0.07515220	     -0.08274665	     -2.47763552	      0.06648406	     -0.15127083	     -2.47763552	      0.04625031	     -0.15127083	     -2.04040572	      0.03757812	     -0.12686990	     -1.89466245	      0.02312313	     -0.09637185	     -1.74891919	      0.28905533	     -0.70379447	    -12.96928513	      0.00000000	      0.00000000	      4.07739479	     -0.10755514	      7.50963134	     -1.93043384	    -15.44335096	     20.43207831	     78.22856036	     88.74565886	     -2.58376204	     21.53351687	    -16.65178617	    -17.64109890	      6.96615203	     91.79551504	     89.37939103	    -15.80556297	     -0.19604738
      3.78333333	     -2.28594583	     -3.23610880	    101.70578441	      0.24762132	      0.80101368	      0.50620915	     -4.64242587	     -2.03389516	    -19.76412679	      5.72225197	      0.09987214	     35.10040157	     15.02583636	      0.00000000	     -1.68793649	      0.12633378	     -2.22438605	      8.71869396	      0.15216992	     25.86992543	    -12.68254857	      0.00000000	      0.03117164	     -0.04857325	     -2.28528797	      0.05788885	     -0.06460242	     -2.42811847	      0.05121188	     -0.11810100	     -2.42811847	      0.03562606	     -0.11810100	     -1.99962698	      0.02894598	     -0.09905057	     -1.85679648	      0.01781147	     -0.07523996	     -1.71396598	      0.22265588	     -0.54947030	    -12.71008611	      0.00000000	      0.00000000	      4.20271876	     -0.27687385	      7.58551102	     -4.12015786	    -15.47993009	     21.66160464	     74.04076848	     88.45287087	     -2.71284509	     22.08984182	    -17.63971296	    -17.87552325	      8.12552337	     86.37008582	     89.46286568	    -16.24615999	      1.11353737
      3.80000000	     -1.65466565	     -3.09668754	    101.74489360	      0.24628034	      0.80074618	      0.50591397	     -4.72919883	     -1.37889026	    -19.63299434	      5.60878264	      0.09789172	     34.39382665	     14.66319581	      0.00000000	     -1.73656825	     -0.51889185	     -1.47263848	      8.89441218	      0.15523678	     26.17802702	    -12.91833563	      0.00000000	      0.03750631	      0.06455108	     -2.13038529	      0.06965298	      0.08585294	     -2.26353437	      0.06161912	      0.15694950	     -2.26353437	      0.04286597	      0.15694950	     -1.86408713	      0.03482836	      0.13163256	     -1.73093805	      0.02143111	      0.09998962	     -1.59778897	      0.26790385	      0.73021473	    -11.84856387	      0.00000000	      0.00000000	      3.66546464	     -1.64049628	      7.53622584	     -6.47633924	    -16.25421574	     22.69689588	     71.03362528	     87.69188383	     -3.54157130	     18.90618716	    -17.33040979	    -18.95327199	     12.01237084	     81.32558517	     89.50060686	    -18.62301001	      5.43177601
      3.81666667	     -1.46120300	     -3.04145720	    101.65172351	      0.24548481	      0.80020768	      0.50559242	     -4.80200979	     -1.17171383	    -19.03544919	      5.51071430	      0.09618011	     34.04700695	     13.94266089	      0.00000000	     -1.88346674	     -0.65917423	     -0.27665963	      8.78415478	      0.15331242	     26.37945531	    -13.46062575	      0.00000000	      0.03905632	      0.11195262	     -2.05173103	      0.07253150	      0.14889699	     -2.17996422	      0.06416563	      0.27220161	     -2.17996422	      0.04463747	      0.27220161	     -1.79526465	      0.03626770	      0.22829379	     -1.66703146	      0.02231678	      0.17341461	     -1.53879827	      0.27897542	      1.26643046	    -11.41111245	      0.00000000	      0.00000000	      3.65363788	     -2.19427800	      7.64545331	     -7.76649561	    -16.71060427	     24.36315321	     68.63554532	     87.51525822	     -4.29367698	     14.53238169	    -17.58962047	    -19.57150335	     12.51805152	     78.60653267	     89.54006636	    -11.64341246	     18.52606511
      3.83333333	     -1.29749305	     -2.99152325	    101.59510859	      0.24476726	      0.79966171	      0.50525427	     -4.88102178	     -0.99223675	    -18.71685859	      5.41413624	      0.09449450	     33.84782060	     13.48817515	      0.00000000	     -1.98147081	     -0.78568602	      0.71868030	      8.69531948	      0.15176195	     26.88076374	    -13.39630493	      0.00000000	      0.04087976	      0.14732108	     -2.03209233	      0.07591781	      0.19593704	     -2.15909810	      0.06716136	      0.35819648	     -2.15909810	      0.04672148	      0.35819648	     -1.77808079	      0.03796095	      0.30041715	     -1.65107502	      0.02335870	      0.22820036	     -1.52406925	      0.29200006	      1.66652554	    -11.30188791	      0.00000000	      0.00000000	      3.75013928	     -2.47743725	      7.73696415	     -8.05088041	    -17.22634205	     26.49266078	     66.78413734	     88.00641763	     -4.94322793	      8.59690838	    -17.53031951	    -19.65639348	     12.21456748	     75.59790278	     89.55681606	     -2.31612847	     30.09047105
      3.85000000	     -0.86738222	     -2.83093002	    101.27910229	      0.24373239	      0.79940027	      0.50505897	     -4.94983884	     -0.61259735	    -18.38527888	      5.40310353	      0.09430195	     33.75836745	     13.51183597	      0.00000000	     -2.18577343	     -1.15065809	      1.36782095	      8.50108188	      0.14837187	     27.46094528	    -13.26456059	      0.00000000	      0.02494744	      0.23638538	     -2.02541118	      0.04632989	      0.31439255	     -2.15199938	      0.04098615	      0.57474740	     -2.15199938	      0.02851243	      0.57474740	     -1.77223479	      0.02316619	      0.48203706	     -1.64564659	      0.01425497	      0.36616095	     -1.51905839	      0.17819706	      2.67403865	    -11.26472939	      0.00000000	      0.00000000	      3.99651997	     -3.14919517	      8.92411719	     -7.53155333	    -18.05461639	     28.29600056	     65.92497512	     88.59198459	     -4.65864487	      3.92717866	    -17.54260602	    -19.22738987	     13.09780191	     71.80671913	     89.53430534	     -0.27135506	     31.84149851
      3.86666667	     -1.03838046	     -2.78591249	    100.78759433	      0.24396213	      0.79907834	      0.50459267	     -5.03123969	     -0.80108328	    -17.52829854	      5.32487085	      0.09293653	     33.99046718	     13.10811548	      0.00000000	     -2.39522364	     -0.91291460	      1.96115607	      8.32126704	      0.14523351	     27.64070550	    -13.36479788	      0.00000000	      0.01563395	      0.21361971	     -2.01116252	      0.02903381	      0.28411421	     -2.13686018	      0.02568502	      0.51939496	     -2.13686018	      0.01786804	      0.51939496	     -1.75976721	      0.01451769	      0.43561331	     -1.63406955	      0.00893324	      0.33089693	     -1.50837189	      0.11167174	      2.41650888	    -11.18548260	      0.00000000	      0.00000000	      4.34450614	     -2.79524903	      8.90953228	     -6.39276661	    -18.29539438	     30.92063354	     64.86125387	     88.76682440	     -7.67673471	     -1.33834046	    -17.91151894	    -18.63448374	     11.95642985	     68.85301044	     89.52454912	      3.78420485	     32.58954103
      3.88333333	     -1.09631429	     -2.68794277	    100.15305820	      0.24422694	      0.79891839	      0.50401828	     -5.08065084	     -0.91956945	    -16.92349029	      5.37984401	      0.09389599	     34.33124478	     13.13721606	      0.00000000	     -2.70903091	     -0.78877650	      2.13548211	      8.03168161	      0.14017929	     27.75219305	    -13.43829761	      0.00000000	     -0.00113587	      0.20828681	     -1.96525078	     -0.00210942	      0.27702145	     -2.08807895	     -0.00186612	      0.50642854	     -2.08807895	     -0.00129819	      0.50642854	     -1.71959443	     -0.00105477	      0.42473845	     -1.59676626	     -0.00064904	      0.32263626	     -1.47393808	     -0.00811341	      2.35618200	    -10.93013525	      0.00000000	      0.00000000	      4.66165098	     -2.64351297	      9.06750921	     -5.49911594	    -18.25860538	     31.72410335	     64.20383648	     88.81368094	     -8.05304022	     -4.22862251	    -17.90696418	    -18.06586552	     11.55940612	     66.40846952	     89.50404217	      4.28285176	     32.12531023
      3.90000000	     -1.39569071	     -2.67427087	     99.42790453	      0.24507641	      0.79877286	      0.50324365	     -5.07802297	     -1.28987247	    -16.27963352	      5.44788573	      0.09508354	     34.76486503	     13.19019716	      0.00000000	     -3.00377816	     -0.41961643	      2.03888232	      7.72112751	      0.13475910	     27.62132936	    -13.59964374	      0.00000000	     -0.00910003	      0.16076906	     -1.89919534	     -0.01689967	      0.21382286	     -2.01789505	     -0.01495044	      0.39089390	     -2.01789505	     -0.01040043	      0.39089390	     -1.66179592	     -0.00845029	      0.32784028	     -1.54309621	     -0.00519976	      0.24903128	     -1.42439650	     -0.06500061	      1.81865181	    -10.56275472	      0.00000000	      0.00000000	      4.81301916	     -2.24217712	      8.88862891	     -4.78626400	    -17.85408744	     31.96178834	     63.41508617	     88.66269484	     -8.65558657	     -6.07858240	    -17.93964617	    -17.60323620	     10.63730315	     64.79702590	     89.49292384	      4.24854584	     31.42670159
      3.91666667	     -1.54825276	     -2.72371850	     99.06530802	      0.24527117	      0.79871411	      0.50269281	     -5.04335402	     -1.50315121	    -16.02826126	      5.44741078	      0.09507525	     34.98678552	     13.27480599	      0.00000000	     -3.08417456	     -0.20605979	      2.06341087	      7.60706817	      0.13276839	     27.55023393	    -13.60186137	      0.00000000	     -0.00985063	      0.13574410	     -1.87720649	     -0.01829360	      0.18053965	     -1.99453190	     -0.01618360	      0.33004820	     -1.99453190	     -0.01125828	      0.33004820	     -1.64255568	     -0.00914729	      0.27680937	     -1.52523028	     -0.00562865	      0.21026761	     -1.40790487	     -0.07036204	      1.53556440	    -10.44045936	      0.00000000	      0.00000000	      4.81903942	     -2.09377658	      8.77941799	     -4.29663399	    -17.48015566	     31.51397544	     62.67481910	     88.29693514	     -8.81915743	     -6.29927013	    -17.63387446	    -17.26839705	     10.07495170	     63.71300698	     89.47074394	      3.94734474	     31.06580476
      3.93333333	     -1.91676676	     -2.75904209	     97.97862816	      0.24659752	      0.79877405	      0.50147973	     -4.89308092	     -2.02709647	    -15.35687027	      5.70260997	      0.09952932	     35.42435706	     13.58957357	      0.00000000	     -3.48317558	      0.28129815	      1.23410478	      7.08930441	      0.12373170	     26.98229143	    -14.08439283	      0.00000000	     -0.00977817	      0.08316117	     -1.72764267	     -0.01815904	      0.11060435	     -1.83562034	     -0.01606456	      0.20219806	     -1.83562034	     -0.01117547	      0.20219806	     -1.51168734	     -0.00908001	      0.16958225	     -1.40370967	     -0.00558725	      0.12881665	     -1.29573201	     -0.06984450	      0.94073574	     -9.60863026	      0.00000000	      0.00000000	      4.61358680	     -1.89031025	      8.61110950	     -3.82619357	    -16.83224606	     30.89569187	     61.09679509	     87.54369508	     -8.48498840	     -7.16054228	    -17.80323469	    -17.10773844	      9.07259653	     63.61518834	     89.48188852	      2.93239584	     29.56586281
